Coordinates
version=1
nRows=21
nColumns=28
inDegrees=yes

Units are S.I. units (second, meters, Newtons, ...)
Angles are in degrees.

endheader
time	pelvis_tilt	pelvis_list	pelvis_rotation	pelvis_tx	pelvis_ty	pelvis_tz	hip_flexion_r	hip_adduction_r	hip_rotation_r	knee_angle_r	ankle_angle_r	subtalar_angle_r	mtp_angle_r	hip_flexion_l	hip_adduction_l	hip_rotation_l	knee_angle_l	socket_flexion	socket_adduction	socket_rotation	socket_tx	socket_ty	socket_tz	foot_flex	lumbar_extension	lumbar_bending	lumbar_rotation
      0.95000000	      7.14179054	      0.76129786	     -3.27050143	      0.43808746	      1.04235576	      0.30248035	     -2.67638858	      1.84348447	     -6.12151757	    -17.21897944	      7.38586421	     -4.86297125	     17.16417264	      3.08535356	      0.31603017	     -1.44507339	    -53.54177941	      0.00000000	      0.00000000	      0.00000000	      0.00000000	      0.00000000	      0.00000000	      0.50973122	    -14.67850081	     -1.33518139	      5.57845673
      0.95416667	      7.10684735	      0.87850291	     -3.50265329	      0.44279593	      1.04304968	      0.30299389	     -3.09529122	      1.67834501	     -6.08905494	    -16.85709302	      7.28757187	     -4.52622146	     17.29632514	      3.62380667	      0.45772806	     -1.39293801	    -53.00916832	      0.00000000	      0.00000000	      0.00000000	      0.00000000	      0.00000000	      0.00000000	      0.48004231	    -14.66207202	     -1.52346234	      5.78089924
      0.95833333	      7.07007586	      0.97447241	     -3.73496274	      0.44749450	      1.04369578	      0.30347246	     -3.50027401	      1.53185364	     -6.07524217	    -16.51758872	      7.21210395	     -4.23077814	     17.41885577	      4.15173272	      0.57594055	     -1.33091155	    -52.44080980	      0.00000000	      0.00000000	      0.00000000	      0.00000000	      0.00000000	      0.00000000	      0.46680068	    -14.63904964	     -1.67913108	      5.95742085
      0.96250000	      7.03014618	      1.06128593	     -3.96105206	      0.45211729	      1.04428439	      0.30392238	     -3.89413306	      1.39240495	     -6.05221113	    -16.17648928	      7.12134359	     -3.91781900	     17.55228509	      4.68494915	      0.68512640	     -1.25113760	    -51.85595697	      0.00000000	      0.00000000	      0.00000000	      0.00000000	      0.00000000	      0.00000000	      0.44075786	    -14.62135896	     -1.81947617	      6.14509890
      0.96666667	      6.99003179	      1.11060623	     -4.18445331	      0.45668730	      1.04480624	      0.30430841	     -4.24860130	      1.28498812	     -6.04945801	    -15.91900790	      7.06252344	     -3.69757041	     17.64695186	      5.20242798	      0.75685932	     -1.15341896	    -51.23528586	      0.00000000	      0.00000000	      0.00000000	      0.00000000	      0.00000000	      0.00000000	      0.43727939	    -14.62254324	     -1.89900541	      6.27757221
      0.97083333	      6.92185332	      1.20508274	     -4.38669608	      0.46136013	      1.04528937	      0.30480689	     -4.65984507	      1.15636794	     -6.00102447	    -15.48990137	      6.92570630	     -3.30587032	     17.81945753	      5.74488539	      0.85768712	     -1.06302498	    -50.58930377	      0.00000000	      0.00000000	      0.00000000	      0.00000000	      0.00000000	      0.00000000	      0.38828279	    -14.57360182	     -2.08136312	      6.50854588
      0.97500000	      6.86872398	      1.24363055	     -4.60807290	      0.46593515	      1.04570863	      0.30523610	     -5.01079308	      1.06238521	     -6.00043736	    -15.20167939	      6.84316714	     -3.03036202	     17.96811696	      6.24955057	      0.90943468	     -0.94329029	    -49.89793894	      0.00000000	      0.00000000	      0.00000000	      0.00000000	      0.00000000	      0.00000000	      0.37204905	    -14.55313567	     -2.16561836	      6.68053185
      0.97916667	      6.82562848	      1.23990303	     -4.82471641	      0.47036915	      1.04609253	      0.30556128	     -5.31541312	      1.00500151	     -5.99722972	    -15.03692630	      6.80361078	     -2.87845950	     18.04471882	      6.73946202	      0.92966905	     -0.78036050	    -49.18784558	      0.00000000	      0.00000000	      0.00000000	      0.00000000	      0.00000000	      0.00000000	      0.37803482	    -14.56961509	     -2.17173440	      6.77439030
      0.98333333	      6.72771843	      1.29850347	     -5.00094731	      0.47505521	      1.04638124	      0.30602272	     -5.70509293	      0.91943853	     -5.93681858	    -14.58205467	      6.69170995	     -2.55552825	     18.18679839	      7.27215562	      0.98292745	     -0.63479303	    -48.43753882	      0.00000000	      0.00000000	      0.00000000	      0.00000000	      0.00000000	      0.00000000	      0.32036023	    -14.48190667	     -2.29840908	      6.95996332
      0.98750000	      6.70867773	      1.25641047	     -5.21163867	      0.47902234	      1.04659505	      0.30642103	     -5.94051801	      0.90233587	     -5.97786030	    -14.54910011	      6.68103062	     -2.50994226	     18.21136922	      7.80521724	      0.93173067	     -0.50447612	    -47.81256600	      0.00000000	      0.00000000	      0.00000000	      0.00000000	      0.00000000	      0.00000000	      0.36203819	    -14.63651163	     -2.29500362	      6.99204842
      0.99166667	      6.54542485	      1.29484187	     -5.37872544	      0.48412502	      1.04680788	      0.30680777	     -6.36043263	      0.84788783	     -5.84634576	    -13.93491991	      6.42660163	     -2.01729840	     18.46919609	      8.28973197	      0.98339015	     -0.25249272	    -46.88739088	      0.00000000	      0.00000000	      0.00000000	      0.00000000	      0.00000000	      0.00000000	      0.28112916	    -14.37452888	     -2.38051158	      7.31996872
      0.99583333	      6.44312468	      1.25353800	     -5.58233545	      0.48866145	      1.04692925	      0.30721169	     -6.63173693	      0.83786461	     -5.88400648	    -13.70605569	      6.18502733	     -1.70100869	     19.05350860	      8.78305750	      0.92769836	     -0.08490096	    -46.06804386	      0.00000000	      0.00000000	      0.00000000	      0.00000000	      0.00000000	      0.00000000	      0.27595337	    -14.30323224	     -2.37638803	      7.62787154
      1.00000000	      6.37076002	      1.22699370	     -5.76762295	      0.49300919	      1.04701513	      0.30751599	     -6.90681745	      0.81246491	     -5.85410882	    -13.52685865	      6.22020924	     -1.62674481	     19.13461536	      9.25187793	      0.90494458	      0.15683457	    -45.22447677	      0.00000000	      0.00000000	      0.00000000	      0.00000000	      0.00000000	      0.00000000	      0.24987809	    -14.31126257	     -2.36517490	      7.66022173
      1.00416667	      6.22526378	      1.19991966	     -5.89544707	      0.49762203	      1.04699582	      0.30785959	     -7.24490088	      0.83339932	     -5.75562832	    -13.08026763	      6.08761435	     -1.43002132	     19.31638115	      9.77760475	      0.86603496	      0.43532165	    -44.36771832	      0.00000000	      0.00000000	      0.00000000	      0.00000000	      0.00000000	      0.00000000	      0.20863270	    -14.19053104	     -2.37100243	      7.77943728
      1.00833333	      6.09110686	      1.13480373	     -6.03637856	      0.50208999	      1.04693909	      0.30820540	     -7.52755507	      0.88294692	     -5.68510419	    -12.76766389	      5.96117228	     -1.32676406	     19.49111517	     10.28355763	      0.78231241	      0.71249604	    -43.49028852	      0.00000000	      0.00000000	      0.00000000	      0.00000000	      0.00000000	      0.00000000	      0.18240003	    -14.10821957	     -2.33098036	      7.89070078
      1.01250000	      5.96162239	      1.05586769	     -6.17245743	      0.50653987	      1.04682743	      0.30854727	     -7.81657627	      0.94965707	     -5.60993387	    -12.45881938	      5.88705061	     -1.24083607	     19.62284679	     10.77599279	      0.68164591	      1.00569387	    -42.59649360	      0.00000000	      0.00000000	      0.00000000	      0.00000000	      0.00000000	      0.00000000	      0.13493860	    -14.03204932	     -2.28925996	      7.98591618
      1.01666667	      5.84025764	      0.97384812	     -6.30157060	      0.51091607	      1.04666331	      0.30886666	     -8.07415306	      1.01542949	     -5.55055752	    -12.22944538	      5.82202632	     -1.18696443	     19.71039800	     11.25749058	      0.56933519	      1.28091900	    -41.69513031	      0.00000000	      0.00000000	      0.00000000	      0.00000000	      0.00000000	      0.00000000	      0.11088257	    -13.98275979	     -2.20532402	      8.06411987
      1.02083333	      5.74509536	      0.87367475	     -6.47331800	      0.51523115	      1.04648481	      0.30918539	     -8.30828270	      1.07576141	     -5.52281113	    -12.10596692	      5.80119163	     -1.14885153	     19.75495263	     11.68436030	      0.44421248	      1.57813411	    -40.75790717	      0.00000000	      0.00000000	      0.00000000	      0.00000000	      0.00000000	      0.00000000	      0.11142692	    -13.97006636	     -2.11409171	      8.11453910
      1.02500000	      5.51627400	      0.74975988	     -6.51760003	      0.51979429	      1.04613378	      0.30945806	     -8.61103195	      1.24308745	     -5.34911057	    -11.57758550	      5.63542574	     -1.07044282	     19.85966683	     12.26075901	      0.28263969	      1.97304070	    -39.84437615	      0.00000000	      0.00000000	      0.00000000	      0.00000000	      0.00000000	      0.00000000	      0.06258416	    -13.77972018	     -2.00490093	      8.25122801
      1.02916667	      5.38408728	      0.62587581	     -6.63974460	      0.52415509	      1.04581535	      0.30976304	     -8.84722654	      1.35510235	     -5.28762004	    -11.38639687	      5.58815968	     -1.08388885	     19.91602359	     12.71593458	      0.11652406	      2.28676838	    -38.88941139	      0.00000000	      0.00000000	      0.00000000	      0.00000000	      0.00000000	      0.00000000	      0.01347122	    -13.72333905	     -1.88004003	      8.30761202
      1.03333333	      5.14343014	      0.46140898	     -6.68841465	      0.52861519	      1.04534473	      0.30999254	     -9.10047704	      1.56272410	     -5.10019946	    -10.93537964	      5.40423280	     -1.17672724	     19.99990838	     13.29455786	     -0.09193400	      2.70536683	    -37.96963683	      0.00000000	      0.00000000	      0.00000000	      0.00000000	      0.00000000	      0.00000000	      0.00736186	    -13.53891779	     -1.70219580	      8.39836162
